:version 1.10
:name ASF
:units
  mass 1
  length 1
  angle deg
:documentation
  ASF file generated by Kaydara
:root
  axis xyz
  order  tx ty tz rx ry rz
  position 0 0 0
  orientation 0 0 0
:bonedata
  begin
    id 1
    name RightUpLegDummy
    direction -0.65628 -0.754516 0.00165102
    length 4.76918
    axis 0 0 0 xyz
  end
  begin
    id 2
    name RightUpLeg
    direction -0.145584 -0.923362 0.355256
    length 17.9961
    axis -24.7611 -13.1006 1.78531 xyz
    dof rx ry rz
  end
  begin
    id 3
    name RightLeg
    direction 0.263379 0.172355 -0.949171
    length 13.3386
    axis 89.6202 -21.1929 12.3855 xyz
    dof rx ry rz
  end
  begin
    id 4
    name RightFoot
    direction 0.224283 -0.968777 -0.105675
    length 5.86697
    axis 56.995 -39.6905 17.3365 xyz
    dof rx ry rz
  end
  begin
    id 5
    name RightToes
    direction -0.0806345 -0.9037 0.420506
    length 4.75197
    axis 146.825 -39.7828 17.6019 xyz
    dof rx ry rz
  end
  begin
    id 6
    name SpineDummy
    direction -3.39852e-014 1 9.33296e-014
    length 8.13779
    axis 0 0 0 xyz
  end
  begin
    id 7
    name Spine
    direction -0.156609 0.733703 0.661176
    length 7.14978
    axis 41.2365 5.68757 17.0844 xyz
    dof rx ry rz
  end
  begin
    id 8
    name Spine1
    direction 0 0 0
    length 0
    axis 42.8809 47.8308 -3.36039 xyz
    dof rx ry rz
  end
  begin
    id 9
    name HEadDummy
    direction 0.546431 0.701947 0.456819
    length 3.55512
    axis 42.8809 47.8308 -3.36039 xyz
  end
  begin
    id 10
    name HEad
    direction 0.23444 0.828559 0.508457
    length 7.35827
    axis 51.1864 49.2662 27.4903 xyz
    dof rx ry rz
  end
  begin
    id 11
    name LeftShoulder1Dummy
    direction 0.431183 0.475873 -0.766568
    length 2.49352
    axis 42.8809 47.8308 -3.36039 xyz
  end
  begin
    id 12
    name LeftShoulder1
    direction 0.268187 -0.383402 -0.883786
    length 4.48604
    axis -119.517 0.106469 35.1736 xyz
    dof rx ry rz
  end
  begin
    id 13
    name LeftArm
    direction 0.380567 -0.703221 -0.600541
    length 10.1142
    axis -5.41825 36.2925 7.8293 xyz
    dof rx ry rz
  end
  begin
    id 14
    name LeftForeArm
    direction 0.541071 -0.732356 -0.413396
    length 9.39839
    axis 4.65387 33.7604 7.81644 xyz
    dof rx ry rz
  end
  begin
    id 15
    name LeftHand
    direction 0.847511 -0.389379 -0.360707
    length 3.66142
    axis 7.65593 21.1436 -24.6758 xyz
    dof rx ry rz
  end
  begin
    id 16
    name RightShoulderDummy
    direction -0.692546 0.541855 0.476208
    length 2.49352
    axis 42.8809 47.8308 -3.36039 xyz
  end
  begin
    id 17
    name RightShoulder
    direction -0.870808 -0.316653 0.376065
    length 4.48602
    axis 141.571 51.133 -100.254 xyz
    dof rx ry rz
  end
  begin
    id 18
    name RightArm
    direction 0.366897 -0.87275 0.322015
    length 10.1142
    axis 92.3258 71.2036 138.917 xyz
    dof rx ry rz
  end
  begin
    id 19
    name RightForeArm
    direction 0.702487 -0.694568 0.155197
    length 9.39835
    axis 153.863 41.5092 -176.604 xyz
    dof rx ry rz
  end
  begin
    id 20
    name RightHand
    direction 0.79502 -0.601276 0.0800636
    length 3.66142
    axis 154.247 4.59222 142.9 xyz
    dof rx ry rz
  end
  begin
    id 21
    name LeftUpLegDummy
    direction 0.65628 -0.754516 0.00165102
    length 4.76919
    axis 0 0 0 xyz
  end
  begin
    id 22
    name LeftUpLeg
    direction -0.1277 -0.689368 0.713067
    length 17.9961
    axis -48.3385 -17.8675 0.791927 xyz
    dof rx ry rz
  end
  begin
    id 23
    name LeftLeg
    direction 0.109849 -0.991246 -0.0732378
    length 13.3386
    axis -2.05791 -7.30784 1.72042 xyz
    dof rx ry rz
  end
  begin
    id 24
    name LeftFoot
    direction 0.0448355 -0.272614 0.961078
    length 5.86697
    axis -18.7733 -7.89606 10.2113 xyz
    dof rx ry rz
  end
  begin
    id 25
    name LeftToes
    direction -0.18506 0.293668 0.937823
    length 4.75197
    axis 71.2267 -7.89606 10.2113 xyz
    dof rx ry rz
  end
:hierarchy
  begin
    root RightUpLegDummy SpineDummy LeftUpLegDummy
    RightUpLegDummy RightUpLeg
    RightUpLeg RightLeg
    RightLeg RightFoot
    RightFoot RightToes
    SpineDummy Spine
    Spine Spine1
    Spine1 HEadDummy LeftShoulder1Dummy RightShoulderDummy
    HEadDummy HEad
    LeftShoulder1Dummy LeftShoulder1
    LeftShoulder1 LeftArm
    LeftArm LeftForeArm
    LeftForeArm LeftHand
    RightShoulderDummy RightShoulder
    RightShoulder RightArm
    RightArm RightForeArm
    RightForeArm RightHand
    LeftUpLegDummy LeftUpLeg
    LeftUpLeg LeftLeg
    LeftLeg LeftFoot
    LeftFoot LeftToes
  end

:SAMPLES-PER-SECOND 30
:FULLY-SPECIFIED
:DEGREES
85
root  -1.98718 36.1137 -5.9468 -10.7615 19.5802 4.08604
RightUpLeg  12.3088 7.54726 -5.79259
RightLeg  -34.6976 -23.1305 2.27064
RightFoot  23.3147 2.56481 -13.0956
RightToes  -1.27222e-014 -6.36111e-015 6.36111e-015
Spine  -21.7693 -15.4288 -14.2466
Spine1  16.9535 -9.51137 27.6344
HEad  -14.8752 -26.9646 -8.81946
LeftShoulder1  6.36111e-015 -1.33558e-015 6.49777e-015
LeftArm  39.14 -41.4307 -64.5625
LeftForeArm  -59.9586 -48.6962 38.464
LeftHand  -3.26414 -8.23358 -13.3135
RightShoulder  -4.77083e-015 -6.36111e-015 -3.18055e-015
RightArm  2.72741 -7.53395 -27.4502
RightForeArm  -98.4892 8.73347 -29.3269
RightHand  -1.17601 8.1403 -4.34422
LeftUpLeg  26.9888 16.5219 10.2594
LeftLeg  5.23909 -12.4758 -2.14613
LeftFoot  -2.56891 2.40914 -8.77102
LeftToes  9.54166e-015 4.2066e-011 -8.07781e-011
86
root  -1.56284 36.4951 -4.90365 -11.5642 16.2041 4.28065
RightUpLeg  8.39762 9.66692 -6.70301
RightLeg  -33.2371 -24.1347 2.4511
RightFoot  21.7185 2.49091 -12.6378
RightToes  -1.27222e-014 -6.36111e-015 6.36111e-015
Spine  -23.1057 -16.574 -14.8881
Spine1  15.9962 -10.7155 28.9011
HEad  -10.6032 -22.6626 -10.745
LeftShoulder1  6.36111e-015 -1.33558e-015 6.49777e-015
LeftArm  46.2725 -47.3554 -74.2044
LeftForeArm  -62.8291 -48.4843 40.3149
LeftHand  -3.58762 -9.48997 -14.5592
RightShoulder  -4.77083e-015 -6.36111e-015 -3.18055e-015
RightArm  -4.7366 -7.33941 -21.3228
RightForeArm  -95.9745 8.063 -27.9966
RightHand  -0.961281 7.38613 -5.14419
LeftUpLeg  31.6358 18.0039 12.2519
LeftLeg  3.45226 -10.5839 -1.6208
LeftFoot  -4.04604 2.27771 -8.71097
LeftToes  9.54166e-015 4.2066e-011 -8.07781e-011
87
root  -1.1755 37.0496 -3.81909 -11.6383 12.2769 4.50635
RightUpLeg  4.31862 11.8596 -6.68363
RightLeg  -35.8704 -24.3287 3.17111
RightFoot  22.7323 2.51908 -12.9037
RightToes  -1.27222e-014 -6.36111e-015 6.36111e-015
Spine  -23.7805 -17.8614 -15.4743
Spine1  12.1845 -12.2693 29.8849
HEad  -5.00349 -17.2839 -12.8576
LeftShoulder1  6.36111e-015 -1.33558e-015 6.49777e-015
LeftArm  51.2658 -48.5337 -81.3702
LeftForeArm  -64.3959 -48.8204 42.4319
LeftHand  -3.8357 -10.6047 -16.4085
RightShoulder  -4.77083e-015 -6.36111e-015 -3.18055e-015
RightArm  -9.15596 -6.98035 -13.8979
RightForeArm  -91.1874 6.79212 -26.3208
RightHand  -0.703227 6.44234 -5.79009
LeftUpLeg  36.3347 19.742 14.8737
LeftLeg  0.160246 -9.32004 -1.24496
LeftFoot  -3.37558 2.44007 -9.12699
LeftToes  9.54166e-015 4.2066e-011 -8.07781e-011
88
root  -0.806835 37.7699 -2.72406 -11.4647 9.2754 4.56977
RightUpLeg  1.55159 13.1962 -6.26482
RightLeg  -42.2516 -23.435 4.23541
RightFoot  23.329 3.05971 -13.8119
RightToes  -1.27222e-014 -6.36111e-015 6.36111e-015
Spine  -24.196 -19.1588 -15.1774
Spine1  6.9091 -14.0782 31.5474
HEad  0.0664863 -11.7437 -14.1189
LeftShoulder1  6.36111e-015 -1.33558e-015 6.49777e-015
LeftArm  53.716 -47.3284 -85.5839
LeftForeArm  -64.8918 -49.3677 44.1603
LeftHand  -3.8899 -10.9162 -17.2857
RightShoulder  -4.77083e-015 -6.36111e-015 -3.18055e-015
RightArm  -11.1566 -6.47964 -6.64551
RightForeArm  -84.1222 5.49491 -26.3924
RightHand  -0.490406 5.51903 -5.80888
LeftUpLeg  40.9286 21.3473 17.7316
LeftLeg  -3.92878 -9.31411 -1.09474
LeftFoot  -1.08056 2.83635 -9.85094
LeftToes  9.54166e-015 4.2066e-011 -8.07781e-011
89
root  -0.493118 38.4551 -1.61357 -11.0884 7.39187 4.63044
RightUpLeg  0.492505 13.7335 -6.02297
RightLeg  -51.2522 -20.6125 4.32288
RightFoot  22.9709 3.34151 -14.1492
RightToes  -1.27222e-014 -6.36111e-015 6.36111e-015
Spine  -25.1339 -20.5932 -14.4545
Spine1  2.43026 -15.9449 33.6416
HEad  4.02607 -7.0861 -14.4214
LeftShoulder1  6.36111e-015 -1.33558e-015 6.49777e-015
LeftArm  55.5682 -46.1263 -88.7976
LeftForeArm  -63.3431 -49.5104 43.0466
LeftHand  -3.72471 -10.1422 -16.4213
RightShoulder  -4.77083e-015 -6.36111e-015 -3.18055e-015
RightArm  -11.1648 -5.20572 -0.537679
RightForeArm  -74.6844 5.43868 -29.3232
RightHand  -0.396381 4.87625 -5.20287
LeftUpLeg  44.8559 22.6214 20.435
LeftLeg  -7.53894 -10.357 -0.96759
LeftFoot  1.81306 3.35182 -10.6595
LeftToes  9.54166e-015 4.2066e-011 -8.07781e-011
90
root  -0.223336 38.9264 -0.486208 -10.8139 5.84284 4.69212
RightUpLeg  0.932996 13.9788 -5.90576
RightLeg  -62.0396 -16.8921 2.83326
RightFoot  23.7272 3.3598 -14.3214
RightToes  -1.27222e-014 -6.36111e-015 6.36111e-015
Spine  -26.4574 -21.9188 -13.7044
Spine1  -0.700559 -17.5526 35.9857
HEad  7.20258 -3.3743 -14.4192
LeftShoulder1  6.36111e-015 -1.33558e-015 6.49777e-015
LeftArm  56.82 -45.4371 -91.4084
LeftForeArm  -59.9218 -49.1946 39.4515
LeftHand  -3.46491 -9.02061 -15.002
RightShoulder  -4.77083e-015 -6.36111e-015 -3.18055e-015
RightArm  -9.25391 -2.04344 4.36965
RightForeArm  -63.806 7.35737 -33.1117
RightHand  -0.371929 4.40705 -4.3259
LeftUpLeg  48.3582 23.2675 22.3653
LeftLeg  -10.359 -11.435 -0.766495
LeftFoot  4.26573 3.82996 -11.3516
LeftToes  9.54166e-015 4.2066e-011 -8.07781e-011
91
root  0.0584307 39.2615 0.607298 -10.8154 4.38078 4.66918
RightUpLeg  2.74928 14.039 -5.75863
RightLeg  -74.9415 -13.8539 0.651642
RightFoot  24.3471 3.44353 -14.5575
RightToes  -1.27222e-014 -6.36111e-015 6.36111e-015
Spine  -28.1489 -22.5176 -12.3976
Spine1  -2.4752 -18.4575 39.1629
HEad  9.50511 -0.376344 -14.4699
LeftShoulder1  6.36111e-015 -1.33558e-015 6.49777e-015
LeftArm  56.3768 -44.8577 -92.562
LeftForeArm  -55.6132 -49.0417 35.8914
LeftHand  -3.26515 -8.23135 -14.2566
RightShoulder  -4.77083e-015 -6.36111e-015 -3.18055e-015
RightArm  -5.72409 3.10002 8.48852
RightForeArm  -53.3819 10.2902 -34.957
RightHand  -0.463318 4.21261 -2.88813
LeftUpLeg  52.2848 23.3747 23.1894
LeftLeg  -14.0924 -11.5897 -0.530679
LeftFoot  5.57199 4.24906 -12.1444
LeftToes  9.54166e-015 4.2066e-011 -8.07781e-011
92
root  0.302204 39.462 1.68434 -10.5932 3.55763 4.82826
RightUpLeg  5.38329 13.9156 -5.80891
RightLeg  -89.5625 -11.9259 -1.48824
RightFoot  23.8812 3.34623 -14.3313
RightToes  -1.27222e-014 -6.36111e-015 6.36111e-015
Spine  -30.629 -22.8203 -10.8692
Spine1  -2.73821 -18.9269 42.9081
HEad  11.0378 1.68114 -14.3357
LeftShoulder1  6.36111e-015 -1.33558e-015 6.49777e-015
LeftArm  55.0831 -44.2455 -92.879
LeftForeArm  -50.2425 -49.047 32.2479
LeftHand  -3.13812 -7.75144 -13.7438
RightShoulder  -4.77083e-015 -6.36111e-015 -3.18055e-015
RightArm  -1.06169 8.78627 12.3367
RightForeArm  -44.8293 12.4414 -34.058
RightHand  -0.712739 4.54858 -0.845098
LeftUpLeg  56.1585 23.2358 22.6886
LeftLeg  -18.9231 -10.5382 -0.879397
LeftFoot  5.46545 4.36828 -12.5187
LeftToes  9.54166e-015 4.2066e-011 -8.07781e-011
93
root  0.411787 39.3878 2.78155 -9.98484 3.36484 5.0038
RightUpLeg  7.41778 13.0566 -5.41455
RightLeg  -101.223 -11.9169 -3.42111
RightFoot  25.8093 3.46679 -14.8562
RightToes  -1.27222e-014 -6.36111e-015 6.36111e-015
Spine  -33.2313 -23.2308 -9.74232
Spine1  -2.57579 -19.3792 46.4237
HEad  12.4176 2.61815 -14.1589
LeftShoulder1  6.36111e-015 -1.33558e-015 6.49777e-015
LeftArm  54.2872 -43.7563 -93.5476
LeftForeArm  -43.1971 -47.9633 26.5022
LeftHand  -3.0671 -7.51078 -12.8248
RightShoulder  -4.77083e-015 -6.36111e-015 -3.18055e-015
RightArm  4.44877 13.8552 16.265
RightForeArm  -38.3517 12.7003 -31.0842
RightHand  -1.01373 5.14038 1.4732
LeftUpLeg  59.105 22.9218 21.7574
LeftLeg  -22.6996 -9.27206 -1.61212
LeftFoot  4.00816 3.87501 -11.5672
LeftToes  9.54166e-015 4.2066e-011 -8.07781e-011
